<svg xmlns="http://www.w3.org/2000/svg" xmlns:xlink="http://www.w3.org/1999/xlink" version="1.1" x="0px" y="0px" viewBox="0 0 44 55" enable-background="new 0 0 44 44" xml:space="preserve"><polygon points="34.08546,8.16455 32.80408,15.43151 29.11474,14.0888 27.15143,10.68829 "/><polygon points="30.664,27.56836 25.42157,31.96729 18.57873,31.96729 13.33656,27.56866 12.14832,20.82995 15.56983,14.90368   22.00012,12.56323 28.43042,14.90368 31.85211,20.8302 "/><polygon points="32.6297,22.17694 34.08509,24.69769 31.85522,26.56878 "/><polygon points="30.39392,29.09998 29.8883,31.96729 26.9768,31.96729 "/><polygon points="24.2298,32.96729 22.00018,34.8382 19.77051,32.96729 "/><polygon points="17.02345,31.96729 14.11219,31.96729 13.60664,29.10028 "/><polygon points="12.14526,26.5691 9.91523,24.69788 11.3708,22.17669 "/><polygon points="11.87811,19.2976 11.37274,16.43127 14.10767,15.43585 "/><polygon points="16.34753,13.55664 17.80305,11.03558 20.53863,12.03125 "/><polygon points="23.46167,12.03131 26.19714,11.03564 27.65265,13.55664 "/><polygon points="29.89251,15.43585 32.62775,16.43145 32.12231,19.29786 "/><polygon points="22,3.76611 25.68957,10.15655 22.00012,11.49932 18.31054,10.15649 "/><polygon points="9.91504,8.16455 16.84869,10.68823 14.88544,14.0888 11.19641,15.43139 "/><polygon points="3.48486,19.30224 10.41889,16.7785 11.10058,20.64434 9.13721,24.04504 "/><polygon points="5.71826,31.96729 9.40765,25.57697 12.41535,28.1007 13.09717,31.96729 "/><polygon points="15.56983,40.23389 14.28852,32.96729 18.21521,32.96729 21.22253,35.49067 "/><polygon points="28.43066,40.23389 22.77783,35.49067 25.78509,32.96729 29.71197,32.96729 "/><polygon points="38.28223,31.96729 30.90332,31.96729 31.58514,28.1004 34.59266,25.57684 "/><polygon points="34.86311,24.04486 32.89991,20.64459 33.5816,16.77863 40.51514,19.30224 "/><text x="0" y="59" fill="#000000" font-size="5px" font-weight="bold" font-family="'Helvetica Neue', Helvetica, Arial-Unicode, Arial, Sans-serif">Created by Pham Duy Phuong Hung</text><text x="0" y="64" fill="#000000" font-size="5px" font-weight="bold" font-family="'Helvetica Neue', Helvetica, Arial-Unicode, Arial, Sans-serif">from the Noun Project</text></svg>