<svg width="50" height="44" viewBox="0 0 50 44" fill="none" xmlns="http://www.w3.org/2000/svg">
<path d="M7.14286 0.125C3.20312 0.125 0 2.92773 0 6.375V37.625C0 41.0723 3.20312 43.875 7.14286 43.875H18.1027V29.6367H12.2098V22H18.1027V18.709C18.1027 10.2031 22.5 6.25781 32.0536 6.25781C33.8616 6.25781 36.9866 6.57031 38.2701 6.88281V13.7969C37.6004 13.7383 36.4286 13.6992 34.9665 13.6992C30.279 13.6992 28.471 15.252 28.471 19.2852V22H37.8013L36.1942 29.6367H28.4598V43.875H42.8571C46.7969 43.875 50 41.0723 50 37.625V6.375C50 2.92773 46.7969 0.125 42.8571 0.125H7.14286Z" fill="white"/>
</svg>
