<svg width="50" height="50" viewBox="0 0 50 50" fill="none" xmlns="http://www.w3.org/2000/svg">
<g clip-path="url(#clip0_56_78)">
<path d="M25.0112 13.7695C17.913 13.7695 12.1875 18.7793 12.1875 24.9902C12.1875 31.2012 17.913 36.2109 25.0112 36.2109C32.1094 36.2109 37.8348 31.2012 37.8348 24.9902C37.8348 18.7793 32.1094 13.7695 25.0112 13.7695ZM25.0112 32.2852C20.4241 32.2852 16.6741 29.0137 16.6741 24.9902C16.6741 20.9668 20.413 17.6953 25.0112 17.6953C29.6094 17.6953 33.3482 20.9668 33.3482 24.9902C33.3482 29.0137 29.5982 32.2852 25.0112 32.2852ZM41.3505 13.3105C41.3505 14.7656 40.0112 15.9277 38.3594 15.9277C36.6964 15.9277 35.3683 14.7559 35.3683 13.3105C35.3683 11.8652 36.7076 10.6934 38.3594 10.6934C40.0112 10.6934 41.3505 11.8652 41.3505 13.3105ZM49.8438 15.9668C49.654 12.4609 48.7388 9.35547 45.8036 6.79687C42.8795 4.23828 39.3304 3.4375 35.3237 3.26172C31.1942 3.05664 18.817 3.05664 14.6875 3.26172C10.692 3.42773 7.14287 4.22852 4.2076 6.78711C1.27233 9.3457 0.368312 12.4512 0.167419 15.957C-0.0669556 19.5703 -0.0669556 30.4004 0.167419 34.0137C0.357152 37.5195 1.27233 40.625 4.2076 43.1836C7.14287 45.7422 10.6808 46.543 14.6875 46.7188C18.817 46.9238 31.1942 46.9238 35.3237 46.7188C39.3304 46.5527 42.8795 45.752 45.8036 43.1836C48.7277 40.625 49.6429 37.5195 49.8438 34.0137C50.0781 30.4004 50.0781 19.5801 49.8438 15.9668ZM44.5089 37.8906C43.6384 39.8047 41.9531 41.2793 39.7545 42.0508C36.4621 43.1934 28.6496 42.9297 25.0112 42.9297C21.3728 42.9297 13.5491 43.1836 10.2679 42.0508C8.08037 41.2891 6.3951 39.8145 5.5134 37.8906C4.2076 35.0098 4.50894 28.1738 4.50894 24.9902C4.50894 21.8066 4.21876 14.9609 5.5134 12.0898C6.38394 10.1758 8.0692 8.70117 10.2679 7.92969C13.5603 6.78711 21.3728 7.05078 25.0112 7.05078C28.6496 7.05078 36.4732 6.79687 39.7545 7.92969C41.942 8.69141 43.6272 10.166 44.5089 12.0898C45.8147 14.9707 45.5134 21.8066 45.5134 24.9902C45.5134 28.1738 45.8147 35.0195 44.5089 37.8906Z" fill="white"/>
</g>
<defs>
<clipPath id="clip0_56_78">
<rect width="50" height="50" fill="white"/>
</clipPath>
</defs>
</svg>
