<svg width="30" height="30" viewBox="0 0 30 30" fill="none" xmlns="http://www.w3.org/2000/svg">
<path d="M16.8516 29.25C20.8594 25.4883 30 16.3711 30 11.25C30 5.03906 23.2812 0 15 0C6.71875 0 0 5.03906 0 11.25C0 16.3711 9.14062 25.4883 13.1484 29.25C14.1094 30.1465 15.8906 30.1465 16.8516 29.25ZM15 7.5C16.3261 7.5 17.5979 7.89509 18.5355 8.59835C19.4732 9.30161 20 10.2554 20 11.25C20 12.2446 19.4732 13.1984 18.5355 13.9017C17.5979 14.6049 16.3261 15 15 15C13.6739 15 12.4021 14.6049 11.4645 13.9017C10.5268 13.1984 10 12.2446 10 11.25C10 10.2554 10.5268 9.30161 11.4645 8.59835C12.4021 7.89509 13.6739 7.5 15 7.5Z" fill="#054A91"/>
</svg>
